<?xml version="1.0" encoding="UTF-8" standalone="no"?>
<!DOCTYPE svg PUBLIC "-//W3C//DTD SVG 1.1//EN"
 "http://www.w3.org/Graphics/SVG/1.1/DTD/svg11.dtd">
<!-- Generated by graphviz version 5.0.0 (20220707.1540)
 -->
<!-- Title: StorageDiagram Pages: 1 -->
<svg width="1545pt" height="584pt"
 viewBox="0.00 0.00 1545.42 583.60" xmlns="http://www.w3.org/2000/svg" xmlns:xlink="http://www.w3.org/1999/xlink">
<g id="graph0" class="graph" transform="scale(1 1) rotate(0) translate(4 579.6)">
<title>StorageDiagram</title>
<polygon fill="white" stroke="transparent" points="-4,4 -4,-579.6 1541.42,-579.6 1541.42,4 -4,4"/>
<!-- 5 -->
<g id="node1" class="node">
<title>5</title>
<polygon fill="#f2f2f2" stroke="black" points="0,-184.9 0,-532.1 485.67,-532.1 485.67,-184.9 0,-184.9"/>
<text text-anchor="middle" x="242.84" y="-515.5" font-family="Courier New" font-size="14.00">GasContract &lt;&lt;Contract&gt;&gt;</text>
<polyline fill="none" stroke="black" points="0,-507.3 485.67,-507.3 "/>
<text text-anchor="middle" x="24.8" y="-490.7" font-family="Courier New" font-size="14.00">slot</text>
<polyline fill="none" stroke="black" points="0,-482.5 49.61,-482.5 "/>
<text text-anchor="middle" x="24.8" y="-465.9" font-family="Courier New" font-size="14.00">0</text>
<polyline fill="none" stroke="black" points="0,-457.7 49.61,-457.7 "/>
<text text-anchor="middle" x="24.8" y="-441.1" font-family="Courier New" font-size="14.00">1</text>
<polyline fill="none" stroke="black" points="0,-432.9 49.61,-432.9 "/>
<text text-anchor="middle" x="24.8" y="-416.3" font-family="Courier New" font-size="14.00">2</text>
<polyline fill="none" stroke="black" points="0,-408.1 49.61,-408.1 "/>
<text text-anchor="middle" x="24.8" y="-391.5" font-family="Courier New" font-size="14.00">3</text>
<polyline fill="none" stroke="black" points="0,-383.3 49.61,-383.3 "/>
<text text-anchor="middle" x="24.8" y="-366.7" font-family="Courier New" font-size="14.00">4</text>
<polyline fill="none" stroke="black" points="0,-358.5 49.61,-358.5 "/>
<text text-anchor="middle" x="24.8" y="-341.9" font-family="Courier New" font-size="14.00">5</text>
<polyline fill="none" stroke="black" points="0,-333.7 49.61,-333.7 "/>
<text text-anchor="middle" x="24.8" y="-317.1" font-family="Courier New" font-size="14.00">6</text>
<polyline fill="none" stroke="black" points="0,-308.9 49.61,-308.9 "/>
<text text-anchor="middle" x="24.8" y="-292.3" font-family="Courier New" font-size="14.00">7</text>
<polyline fill="none" stroke="black" points="0,-284.1 49.61,-284.1 "/>
<text text-anchor="middle" x="24.8" y="-267.5" font-family="Courier New" font-size="14.00">8</text>
<polyline fill="none" stroke="black" points="0,-259.3 49.61,-259.3 "/>
<text text-anchor="middle" x="24.8" y="-242.7" font-family="Courier New" font-size="14.00">9&#45;13</text>
<polyline fill="none" stroke="black" points="0,-234.5 49.61,-234.5 "/>
<text text-anchor="middle" x="24.8" y="-217.9" font-family="Courier New" font-size="14.00">14</text>
<polyline fill="none" stroke="black" points="0,-209.7 49.61,-209.7 "/>
<text text-anchor="middle" x="24.8" y="-193.1" font-family="Courier New" font-size="14.00">15</text>
<polyline fill="none" stroke="black" points="49.61,-184.9 49.61,-507.3 "/>
<text text-anchor="middle" x="267.64" y="-490.7" font-family="Courier New" font-size="14.00">type: &lt;inherited contract&gt;.variable (bytes)</text>
<polyline fill="none" stroke="black" points="49.61,-482.5 485.67,-482.5 "/>
<text text-anchor="middle" x="267.22" y="-465.9" font-family="Courier New" font-size="14.00">uint256: paymentCounter (32)</text>
<polyline fill="none" stroke="black" points="49.61,-457.7 485.67,-457.7 "/>
<text text-anchor="middle" x="267.32" y="-441.1" font-family="Courier New" font-size="14.00">uint256: tradePercent (32)</text>
<polyline fill="none" stroke="black" points="49.61,-432.9 485.67,-432.9 "/>
<text text-anchor="middle" x="267.42" y="-416.3" font-family="Courier New" font-size="14.00">uint256: wasLastOdd (32)</text>
<polyline fill="none" stroke="black" points="49.61,-408.1 485.67,-408.1 "/>
<text text-anchor="middle" x="267.63" y="-391.5" font-family="Courier New" font-size="14.00">mapping(address=&gt;uint256): balances (32)</text>
<polyline fill="none" stroke="black" points="49.61,-383.3 485.67,-383.3 "/>
<text text-anchor="middle" x="267.53" y="-366.7" font-family="Courier New" font-size="14.00">mapping(address=&gt;Payment[]): payments (32)</text>
<polyline fill="none" stroke="black" points="49.61,-358.5 485.67,-358.5 "/>
<text text-anchor="middle" x="267.33" y="-341.9" font-family="Courier New" font-size="14.00">mapping(address=&gt;uint256): whitelist (32)</text>
<polyline fill="none" stroke="black" points="49.61,-333.7 485.67,-333.7 "/>
<text text-anchor="middle" x="267.64" y="-317.1" font-family="Courier New" font-size="14.00">mapping(address=&gt;uint256): isOddWhitelistUser (32)</text>
<polyline fill="none" stroke="black" points="49.61,-308.9 485.67,-308.9 "/>
<text text-anchor="middle" x="267.33" y="-292.3" font-family="Courier New" font-size="14.00">mapping(address=&gt;bool): isAdmin (32)</text>
<polyline fill="none" stroke="black" points="49.61,-284.1 485.67,-284.1 "/>
<text text-anchor="middle" x="135.32" y="-267.5" font-family="Courier New" font-size="14.00">unallocated (12)</text>
<polyline fill="none" stroke="black" points="221.03,-259.3 221.03,-284.1 "/>
<text text-anchor="middle" x="352.95" y="-267.5" font-family="Courier New" font-size="14.00">address: contractOwner (20)</text>
<polyline fill="none" stroke="black" points="49.61,-259.3 485.67,-259.3 "/>
<text text-anchor="middle" x="267.53" y="-242.7" font-family="Courier New" font-size="14.00">address[5]: administrators (160)</text>
<polyline fill="none" stroke="black" points="49.61,-234.5 485.67,-234.5 "/>
<text text-anchor="middle" x="156.32" y="-217.9" font-family="Courier New" font-size="14.00">unallocated (31)</text>
<polyline fill="none" stroke="black" points="263.03,-209.7 263.03,-234.5 "/>
<text text-anchor="middle" x="373.94" y="-217.9" font-family="Courier New" font-size="14.00">bool: isReady (1)</text>
<polyline fill="none" stroke="black" points="49.61,-209.7 485.67,-209.7 "/>
<text text-anchor="middle" x="267.63" y="-193.1" font-family="Courier New" font-size="14.00">History[]: paymentHistory (32)</text>
</g>
<!-- 1 -->
<g id="node2" class="node">
<title>1</title>
<polygon fill="#f2f2f2" stroke="black" points="581.29,-351.9 581.29,-575.1 1032.55,-575.1 1032.55,-351.9 581.29,-351.9"/>
<text text-anchor="middle" x="806.92" y="-558.5" font-family="Courier New" font-size="14.00">Payment &lt;&lt;Struct&gt;&gt;</text>
<polyline fill="none" stroke="black" points="581.29,-550.3 1032.55,-550.3 "/>
<text text-anchor="middle" x="606.09" y="-533.7" font-family="Courier New" font-size="14.00">slot</text>
<polyline fill="none" stroke="black" points="581.29,-525.5 630.89,-525.5 "/>
<text text-anchor="middle" x="606.09" y="-508.9" font-family="Courier New" font-size="14.00">0</text>
<polyline fill="none" stroke="black" points="581.29,-500.7 630.89,-500.7 "/>
<text text-anchor="middle" x="606.09" y="-484.1" font-family="Courier New" font-size="14.00">1</text>
<polyline fill="none" stroke="black" points="581.29,-475.9 630.89,-475.9 "/>
<text text-anchor="middle" x="606.09" y="-459.3" font-family="Courier New" font-size="14.00">2</text>
<polyline fill="none" stroke="black" points="581.29,-451.1 630.89,-451.1 "/>
<text text-anchor="middle" x="606.09" y="-434.5" font-family="Courier New" font-size="14.00">3</text>
<polyline fill="none" stroke="black" points="581.29,-426.3 630.89,-426.3 "/>
<text text-anchor="middle" x="606.09" y="-409.7" font-family="Courier New" font-size="14.00">4</text>
<polyline fill="none" stroke="black" points="581.29,-401.5 630.89,-401.5 "/>
<text text-anchor="middle" x="606.09" y="-384.9" font-family="Courier New" font-size="14.00">5</text>
<polyline fill="none" stroke="black" points="581.29,-376.7 630.89,-376.7 "/>
<text text-anchor="middle" x="606.09" y="-360.1" font-family="Courier New" font-size="14.00">6</text>
<polyline fill="none" stroke="black" points="630.89,-351.9 630.89,-550.3 "/>
<text text-anchor="middle" x="831.72" y="-533.7" font-family="Courier New" font-size="14.00">type: variable (bytes)</text>
<polyline fill="none" stroke="black" points="630.89,-525.5 1032.55,-525.5 "/>
<text text-anchor="middle" x="706.1" y="-508.9" font-family="Courier New" font-size="14.00">unallocated (31)</text>
<polyline fill="none" stroke="black" points="781.31,-500.7 781.31,-525.5 "/>
<text text-anchor="middle" x="906.93" y="-508.9" font-family="Courier New" font-size="14.00">PaymentType: paymentType (1)</text>
<polyline fill="none" stroke="black" points="630.89,-500.7 1032.55,-500.7 "/>
<text text-anchor="middle" x="831.51" y="-484.1" font-family="Courier New" font-size="14.00">uint256: paymentID (32)</text>
<polyline fill="none" stroke="black" points="630.89,-475.9 1032.55,-475.9 "/>
<text text-anchor="middle" x="831.41" y="-459.3" font-family="Courier New" font-size="14.00">uint256: amount (32)</text>
<polyline fill="none" stroke="black" points="630.89,-451.1 1032.55,-451.1 "/>
<text text-anchor="middle" x="718.6" y="-434.5" font-family="Courier New" font-size="14.00">unallocated (31)</text>
<polyline fill="none" stroke="black" points="806.31,-426.3 806.31,-451.1 "/>
<text text-anchor="middle" x="919.23" y="-434.5" font-family="Courier New" font-size="14.00">bool: adminUpdated (1)</text>
<polyline fill="none" stroke="black" points="630.89,-426.3 1032.55,-426.3 "/>
<text text-anchor="middle" x="831.61" y="-409.7" font-family="Courier New" font-size="14.00">string: recipientName (32)</text>
<polyline fill="none" stroke="black" points="630.89,-401.5 1032.55,-401.5 "/>
<text text-anchor="middle" x="716.6" y="-384.9" font-family="Courier New" font-size="14.00">unallocated (12)</text>
<polyline fill="none" stroke="black" points="802.31,-376.7 802.31,-401.5 "/>
<text text-anchor="middle" x="917.43" y="-384.9" font-family="Courier New" font-size="14.00">address: recipient (20)</text>
<polyline fill="none" stroke="black" points="630.89,-376.7 1032.55,-376.7 "/>
<text text-anchor="middle" x="724.6" y="-360.1" font-family="Courier New" font-size="14.00">unallocated (12)</text>
<polyline fill="none" stroke="black" points="818.31,-351.9 818.31,-376.7 "/>
<text text-anchor="middle" x="925.13" y="-360.1" font-family="Courier New" font-size="14.00">address: admin (20)</text>
</g>
<!-- 5&#45;&gt;1 -->
<g id="edge1" class="edge">
<title>5:12&#45;&gt;1</title>
<path fill="none" stroke="black" d="M485.67,-370.5C513.77,-370.5 542.72,-373.84 571.19,-379.26"/>
<polygon fill="black" stroke="black" points="570.75,-382.74 581.24,-381.26 572.12,-375.87 570.75,-382.74"/>
</g>
<!-- 2 -->
<g id="node3" class="node">
<title>2</title>
<polygon fill="#f2f2f2" stroke="black" points="647.69,-159.7 647.69,-333.3 966.14,-333.3 966.14,-159.7 647.69,-159.7"/>
<text text-anchor="middle" x="806.92" y="-316.7" font-family="Courier New" font-size="14.00">address[5]: administrators &lt;&lt;Array&gt;&gt;</text>
<polyline fill="none" stroke="black" points="647.69,-308.5 966.14,-308.5 "/>
<text text-anchor="middle" x="672.5" y="-291.9" font-family="Courier New" font-size="14.00">slot</text>
<polyline fill="none" stroke="black" points="647.69,-283.7 697.3,-283.7 "/>
<text text-anchor="middle" x="672.5" y="-267.1" font-family="Courier New" font-size="14.00">9</text>
<polyline fill="none" stroke="black" points="647.69,-258.9 697.3,-258.9 "/>
<text text-anchor="middle" x="672.5" y="-242.3" font-family="Courier New" font-size="14.00">10</text>
<polyline fill="none" stroke="black" points="647.69,-234.1 697.3,-234.1 "/>
<text text-anchor="middle" x="672.5" y="-217.5" font-family="Courier New" font-size="14.00">11</text>
<polyline fill="none" stroke="black" points="647.69,-209.3 697.3,-209.3 "/>
<text text-anchor="middle" x="672.5" y="-192.7" font-family="Courier New" font-size="14.00">12</text>
<polyline fill="none" stroke="black" points="647.69,-184.5 697.3,-184.5 "/>
<text text-anchor="middle" x="672.5" y="-167.9" font-family="Courier New" font-size="14.00">13</text>
<polyline fill="none" stroke="black" points="697.3,-159.7 697.3,-308.5 "/>
<text text-anchor="middle" x="831.42" y="-291.9" font-family="Courier New" font-size="14.00">type: variable (bytes)</text>
<polyline fill="none" stroke="black" points="697.3,-283.7 965.54,-283.7 "/>
<text text-anchor="middle" x="772.51" y="-267.1" font-family="Courier New" font-size="14.00">unallocated (12)</text>
<polyline fill="none" stroke="black" points="847.72,-258.9 847.72,-283.7 "/>
<text text-anchor="middle" x="906.63" y="-267.1" font-family="Courier New" font-size="14.00">address (20)</text>
<polyline fill="none" stroke="black" points="697.3,-258.9 965.54,-258.9 "/>
<text text-anchor="middle" x="772.51" y="-242.3" font-family="Courier New" font-size="14.00">unallocated (12)</text>
<polyline fill="none" stroke="black" points="847.72,-234.1 847.72,-258.9 "/>
<text text-anchor="middle" x="906.63" y="-242.3" font-family="Courier New" font-size="14.00">address (20)</text>
<polyline fill="none" stroke="black" points="697.3,-234.1 965.54,-234.1 "/>
<text text-anchor="middle" x="772.51" y="-217.5" font-family="Courier New" font-size="14.00">unallocated (12)</text>
<polyline fill="none" stroke="black" points="847.72,-209.3 847.72,-234.1 "/>
<text text-anchor="middle" x="906.63" y="-217.5" font-family="Courier New" font-size="14.00">address (20)</text>
<polyline fill="none" stroke="black" points="697.3,-209.3 965.54,-209.3 "/>
<text text-anchor="middle" x="772.51" y="-192.7" font-family="Courier New" font-size="14.00">unallocated (12)</text>
<polyline fill="none" stroke="black" points="847.72,-184.5 847.72,-209.3 "/>
<text text-anchor="middle" x="906.63" y="-192.7" font-family="Courier New" font-size="14.00">address (20)</text>
<polyline fill="none" stroke="black" points="697.3,-184.5 965.54,-184.5 "/>
<text text-anchor="middle" x="772.51" y="-167.9" font-family="Courier New" font-size="14.00">unallocated (12)</text>
<polyline fill="none" stroke="black" points="847.72,-159.7 847.72,-184.5 "/>
<text text-anchor="middle" x="906.63" y="-167.9" font-family="Courier New" font-size="14.00">address (20)</text>
</g>
<!-- 5&#45;&gt;2 -->
<g id="edge2" class="edge">
<title>5:22&#45;&gt;2</title>
<path fill="none" stroke="black" d="M485.67,-246.5C534.96,-246.5 588.51,-246.5 637.46,-246.5"/>
<polygon fill="black" stroke="black" points="637.51,-250 647.51,-246.5 637.51,-243 637.51,-250"/>
</g>
<!-- 4 -->
<g id="node5" class="node">
<title>4</title>
<polygon fill="#f2f2f2" stroke="black" points="521.67,-49.9 521.67,-141.1 1092.16,-141.1 1092.16,-49.9 521.67,-49.9"/>
<text text-anchor="middle" x="806.92" y="-124.5" font-family="Courier New" font-size="14.00">History[]: paymentHistory &lt;&lt;Array&gt;&gt;</text>
<text text-anchor="middle" x="806.92" y="-107.7" font-family="Courier New" font-size="14.00">0x98fc0aaa91a89c95afcb1d5888f8086579dc6725de1a2adf06dad42d1f9d2289</text>
<polyline fill="none" stroke="black" points="521.67,-99.5 1092.16,-99.5 "/>
<text text-anchor="middle" x="626.48" y="-82.9" font-family="Courier New" font-size="14.00">slot</text>
<polyline fill="none" stroke="black" points="521.67,-74.7 731.28,-74.7 "/>
<text text-anchor="middle" x="626.48" y="-58.1" font-family="Courier New" font-size="14.00">0&#45;2</text>
<polyline fill="none" stroke="black" points="731.28,-49.9 731.28,-99.5 "/>
<text text-anchor="middle" x="911.69" y="-82.9" font-family="Courier New" font-size="14.00">type: variable (bytes)</text>
<polyline fill="none" stroke="black" points="731.28,-74.7 1092.11,-74.7 "/>
<text text-anchor="middle" x="911.69" y="-58.1" font-family="Courier New" font-size="14.00">History (96)</text>
</g>
<!-- 5&#45;&gt;4 -->
<g id="edge3" class="edge">
<title>5:28&#45;&gt;4</title>
<path fill="none" stroke="black" d="M485.67,-197.5C511.99,-197.5 499.3,-164.35 521.67,-150.5 524.18,-148.95 526.72,-147.44 529.29,-145.98"/>
<polygon fill="black" stroke="black" points="531.04,-149.01 538.14,-141.15 527.69,-142.86 531.04,-149.01"/>
</g>
<!-- 3 -->
<g id="node4" class="node">
<title>3</title>
<polygon fill="#f2f2f2" stroke="black" points="1128.16,-0.5 1128.16,-124.5 1537.42,-124.5 1537.42,-0.5 1128.16,-0.5"/>
<text text-anchor="middle" x="1332.79" y="-107.9" font-family="Courier New" font-size="14.00">History &lt;&lt;Struct&gt;&gt;</text>
<polyline fill="none" stroke="black" points="1128.16,-99.7 1537.42,-99.7 "/>
<text text-anchor="middle" x="1152.97" y="-83.1" font-family="Courier New" font-size="14.00">slot</text>
<polyline fill="none" stroke="black" points="1128.16,-74.9 1177.77,-74.9 "/>
<text text-anchor="middle" x="1152.97" y="-58.3" font-family="Courier New" font-size="14.00">0</text>
<polyline fill="none" stroke="black" points="1128.16,-50.1 1177.77,-50.1 "/>
<text text-anchor="middle" x="1152.97" y="-33.5" font-family="Courier New" font-size="14.00">1</text>
<polyline fill="none" stroke="black" points="1128.16,-25.3 1177.77,-25.3 "/>
<text text-anchor="middle" x="1152.97" y="-8.7" font-family="Courier New" font-size="14.00">2</text>
<polyline fill="none" stroke="black" points="1177.77,-0.5 1177.77,-99.7 "/>
<text text-anchor="middle" x="1357.6" y="-83.1" font-family="Courier New" font-size="14.00">type: variable (bytes)</text>
<polyline fill="none" stroke="black" points="1177.77,-74.9 1537.42,-74.9 "/>
<text text-anchor="middle" x="1357.59" y="-58.3" font-family="Courier New" font-size="14.00">uint256: lastUpdate (32)</text>
<polyline fill="none" stroke="black" points="1177.77,-50.1 1537.42,-50.1 "/>
<text text-anchor="middle" x="1357.29" y="-33.5" font-family="Courier New" font-size="14.00">uint256: blockNumber (32)</text>
<polyline fill="none" stroke="black" points="1177.77,-25.3 1537.42,-25.3 "/>
<text text-anchor="middle" x="1252.98" y="-8.7" font-family="Courier New" font-size="14.00">unallocated (12)</text>
<polyline fill="none" stroke="black" points="1328.19,-0.5 1328.19,-25.3 "/>
<text text-anchor="middle" x="1432.81" y="-8.7" font-family="Courier New" font-size="14.00">address: updatedBy (20)</text>
</g>
<!-- 4&#45;&gt;3 -->
<g id="edge4" class="edge">
<title>4:24&#45;&gt;3</title>
<path fill="none" stroke="black" d="M1092.16,-62.5C1100.54,-62.5 1109.07,-62.5 1117.7,-62.5"/>
<polygon fill="black" stroke="black" points="1117.86,-66 1127.86,-62.5 1117.86,-59 1117.86,-66"/>
</g>
</g>
</svg>
